<svg xmlns="http://www.w3.org/2000/svg" version="1" width="1200" height="213" viewBox="0 0 1200 213" preserveAspectRatio="xMidYMid meet"><metadata>
Created by potrace 1.13, written by Peter Selinger 2001-2015
</metadata><g transform="translate(0.000000,213.000000) scale(0.100000,-0.100000)" fill="#FFFFFF" stroke="none"><path d="M1555 2120c-194-30-408-131-546-258l-56-51-464-107c-255-58-470-111-476-116-7-6-13-18-13-27 0-21 97-117 128-126 13-4 42-27 65-52 23-26 61-54 83-64 23-11 53-34 67-52 13-18 42-41 63-52 22-11 67-46 102-77 34-32 70-58 78-58 27 0 63-52 64-91 0-55 27-187 54-265 55-164 147-305 281-432 106-100 216-170 347-219 147-56 214-67 388-67 130 0 169 4 244 23 206 53 346 132 492 276 55 55 110 113 120 128 17 24 34 31 122 52 102 23 132 37 132 59-1 27-20 39-69 40-71 3-80 14-57 74 60 152 69 208 70 402 1 200-12 278-69 407-15 34-25 74-25 103 0 41 5 53 31 80 38 37 124 82 202 105 64 18 71 26 63 61-9 33-26 32-251-20l-190-44-85 82c-135 130-292 217-480 265-97 25-315 36-415 21zm275-151c166-20 320-86 460-196 68-53 72-57 51-67-18-8-27-4-54 21-104 98-284 180-449 204-93 14-245 7-328-15-34-9-70-12-95-8l-40 7 76 23c132 39 243 48 379 31zm-506-141c-65-57-64-52-64-523 0-234 3-425 8-424 4 0 106 24 227 52l220 53 0 216c0 205-1 218-21 245-12 15-38 33-58 38-35 10-26 13 153 54 104 23 198 41 208 39 17-3 18-20 21-261 1-141 5-257 8-257 3 0 62 13 132 30 70 16 137 32 150 35l22 5 0 259c0 204 3 261 13 270 11 9 477 121 503 121 4 0-25-16-64-35-95-48-138-97-147-167-3-29-5-255-3-503 3-500 2-491 70-522l38-19-186-42c-139-31-191-39-205-31-18 9-19 25-19 265 0 239-1 255-17 250-19-6-282-66-289-66-2 0-4-119-4-264 0-149-4-267-9-270-8-6-383-96-396-96-3 0 10 14 30 31 66 58 69 72 73 297 2 112 2 209-1 216-4 10-106-10-434-86-235-54-430-98-433-98-2 0 12 14 33 31 61 50 67 71 67 224 0 154 7 145-95 120-94-23-110-20-160 26-25 23-44 44-41 46 2 2 62 18 133 34 157 36 163 38 163 50 0 15-34 11-172-21-175-41-184-40-238 15-24 25-40 45-35 45 21 1 437 99 443 104 3 4 1 10-4 15-5 6-102-12-244-45-191-43-240-52-261-43-27 11-96 76-88 83 2 2 138 34 302 71 208 48 297 72 297 82 0 7-4 13-9 13-5 0-148-32-317-71-170-38-317-68-329-65-20 5-103 83-94 89 2 2 170 41 373 88 221 50 371 89 374 97 2 6-4 12-13 12-9 0-184-38-387-85-204-47-381-85-393-85-25 0-108 67-102 83 3 9 1241 303 1290 306 12 1 7-8-19-31zm-339-1250c41-63 151-174 220-223 266-189 615-216 905-70 69 35 136 79 176 117 20 18 37 26 47 22 9-3 17-10 17-14 0-12-137-114-200-148-30-17-96-44-145-61-392-131-818 15-1053 360-17 26-28 49-25 53 15 14 32 3 58-36zM10748 1560l-26-80 56 0 57 0 58 75c31 41 57 77 57 80 0 3-40 5-88 5l-88 0-26-80zM5268 1615c-28-16-68-73-68-98 0-24 40-28 68-6 31 24 48 24 107-2 78-35 142-12 182 65 14 27 14 31-3 43-25 18-37 16-52-7-7-12-23-20-40-20-15 0-53 9-85 20-66 23-74 24-109 5zM4375 1426c-97-31-145-76-171-162-21-70-20-570 1-642 29-95 89-142 184-142 63 0 98 13 139 53l32 31 0-37 0-37 90 0 90 0 0 260 0 260-140 0-140 0 0-90 0-90 40 0 40 0 0-62c0-74-15-109-52-122-20-7-33-5-52 8l-26 16 0 284c0 261 1 284 18 299 10 10 33 17 50 17 43 0 62-30 62-102l0-58 100 0 100 0 0 83c0 97-21 151-72 190-65 50-206 71-293 43zM5895 1427c-98-33-145-78-171-163-20-69-20-540 1-610 32-109 111-165 242-172 136-7 220 35 270 136l28 57 0 280c0 212-3 289-14 319-18 53-77 115-129 138-56 25-174 32-227 15zm139-179c14-19 16-64 16-285 0-144-4-273-10-287-12-33-52-43-85-22l-25 16 0 281c0 174 4 288 10 300 15 28 74 26 94-3zM7407 1430c-58-15-92-36-130-80-55-65-59-92-55-415 3-319 3-319 69-383 56-55 93-67 204-67 78 0 108 4 135 19 49 26 88 64 113 111 21 38 22 55 25 323 3 243 1 290-14 334-33 102-114 157-238 164-39 2-88-1-109-6zm131-172c9-9 12-89 12-299 0-286 0-288-22-303-31-22-45-20-73 9l-25 24 0 268c0 301 2 313 64 313 17 0 37-5 44-12zM8025 1431c-118-31-185-119-185-243 0-112 44-176 205-298 103-78 135-119 135-171 0-40-7-52-37-68-33-17-51-14-78 14-21 20-25 34-25 85l0 60-105 0-105 0 0-67c0-90 13-131 55-181 47-54 120-82 219-82 106 0 169 22 225 78 58 58 77 115 67 203-11 113-40 149-256 321-70 56-103 104-95 138 8 33 32 50 71 50 44 0 64-30 64-97l0-53 106 0 107 0-6 76c-15 167-83 233-252 240-44 2-93 0-110-5zM10705 1427c-98-33-145-78-171-163-21-70-20-540 1-612 32-107 111-163 242-170 136-7 220 35 270 136l28 57 0 275c0 197-4 287-13 318-17 55-75 120-130 144-56 25-174 32-227 15zm139-179c14-19 16-64 16-285 0-144-4-273-10-287-12-33-52-43-85-22l-25 16 0 281c0 174 4 288 10 300 15 28 74 26 94-3zM11625 1431c-120-31-185-119-185-249 0-107 45-171 205-292 103-78 135-119 135-171 0-40-7-52-37-68-33-17-51-14-78 14-21 20-25 34-25 85l0 60-105 0-105 0 0-67c0-90 13-131 55-181 47-54 120-82 219-82 106 0 169 22 225 78 58 58 77 115 67 204-10 98-44 148-174 253-158 128-176 147-176 191 0 43 23 64 70 64 44 0 64-30 64-97l0-53 106 0 107 0-7 78c-15 167-82 231-251 238-44 2-93 0-110-5zM3170 955l0-465 225 0 225 0 0 90 0 90-115 0-115 0 0 375 0 375-110 0-110 0 0-465zM3660 955l0-465 245 0 245 0 0 90 0 90-135 0-135 0 0 105 0 105 115 0 115 0 0 90 0 90-115 0-115 0 0 90 0 90 130 0 130 0 0 90 0 90-240 0-240 0 0-465zM4820 955l0-465 105 0 105 0 0 465 0 465-105 0-105 0 0-465zM5235 1398c-10-44-165-887-165-898 0-6 38-10 105-10 58 0 105 1 106 3 0 1 6 38 12 82l12 80 75 0 75 0 10-80 10-80 113-3c61-1 112 0 112 4 0 3-38 208-85 456-47 247-85 454-85 459 0 5-64 9-145 9-142 0-145 0-150-22zm175-346c28-252 30-232-30-232-41 0-50 3-50 18 0 15 48 409 51 422 3 12 10-36 29-208zM6592 958l3-463 165-3c204-4 253 5 313 59 75 65 79 88 75 431-3 277-4 295-24 333-51 95-84 105-334 105l-200 0 2-462zm316 286c22-15 22-17 22-282 0-147-4-272-8-278-12-19-49-34-81-34l-31 0 0 305 0 305 38 0c21 0 48-7 60-16zM8720 955l0-465 110 0 110 0 0 200 0 200 60 0 60 0 0-200 0-200 110 0 110 0 0 465 0 465-110 0-110 0 0-170 0-170-60 0-60 0 0 170 0 170-110 0-110 0 0-465zM9340 955l0-465 245 0 245 0 0 90 0 90-135 0-135 0 0 105 0 105 115 0 115 0 0 90 0 90-115 0-115 0 0 90 0 90 130 0 130 0 0 90 0 90-240 0-240 0 0-465zM9900 955l0-465 105 0 105 0 0 200 0 200 43 0c79 0 80-4 87-201 3-96 9-180 13-186 6-9 40-13 114-13 96 0 104 1 97 18-4 9-10 99-13 199-7 203-12 218-83 257l-35 19 40 22c56 29 78 75 80 167 3 98-8 142-44 183-48 55-100 65-321 65l-188 0 0-465zm324 283c10-14 16-44 16-81 0-49-4-62-25-83-20-20-34-25-63-22l-37 3-3 103-3 102 50 0c40 0 53-4 65-22zM11150 955l0-465 105 0 105 0 0 465 0 465-105 0-105 0 0-465z"/></g></svg>
